<?xml version="1.0" encoding="UTF-8"?>
<!DOCTYPE svg PUBLIC "-//W3C//DTD SVG 1.1//EN" "http://www.w3.org/Graphics/SVG/1.1/DTD/svg11.dtd">
<!-- Creator: CorelDRAW -->
<svg xmlns="http://www.w3.org/2000/svg" xml:space="preserve" width="6.82666in" height="6.82666in" style="shape-rendering:geometricPrecision; text-rendering:geometricPrecision; image-rendering:optimizeQuality; fill-rule:evenodd; clip-rule:evenodd"
viewBox="0 0 6.82666 6.82666"
 xmlns:xlink="http://www.w3.org/1999/xlink">
 <defs>
  <style type="text/css">
   <![CDATA[
    .fil2 {fill:none}
    .fil1 {fill:#0288D1}
    .fil0 {fill:#29B6F6}
    .fil11 {fill:#2B2021}
    .fil3 {fill:#2B2122}
    .fil4 {fill:#33292A}
    .fil6 {fill:#3B3031}
    .fil9 {fill:#424242}
    .fil5 {fill:#A47654}
    .fil7 {fill:#A5D6A7}
    .fil10 {fill:#E0E0E0}
    .fil8 {fill:#212121;fill-rule:nonzero}
   ]]>
  </style>
   <clipPath id="id0">
    <path d="M3.41333 -3.93701e-006c1.88513,0 3.41333,1.5282 3.41333,3.41333 0,1.88513 -1.5282,3.41333 -3.41333,3.41333 -1.88513,0 -3.41333,-1.5282 -3.41333,-3.41333 0,-1.88513 1.5282,-3.41333 3.41333,-3.41333z"/>
   </clipPath>
 </defs>
 <g id="Layer_x0020_1">
  <metadata id="CorelCorpID_0Corel-Layer"/>
  <path class="fil0" d="M3.41333 -3.93701e-006c1.88513,0 3.41333,1.5282 3.41333,3.41333 0,1.88513 -1.5282,3.41333 -3.41333,3.41333 -1.88513,0 -3.41333,-1.5282 -3.41333,-3.41333 0,-1.88513 1.5282,-3.41333 3.41333,-3.41333z"/>
  <g style="clip-path:url(#id0)">
   <g id="_637666504">
    <g>
     <polygon id="_4487586401" class="fil1" points="2.57811,3.69201 6.36438,7.47828 6.36441,7.47828 6.36443,7.47829 2.57816,3.69202 2.57814,3.69201 "/>
     <polygon id="_448758472" class="fil1" points="2.35358,2.6648 6.13985,6.45107 6.13882,6.45159 6.13769,6.45273 6.13635,6.45446 6.13474,6.45672 6.13277,6.45948 6.13034,6.46269 6.12738,6.4663 6.1238,6.47026 6.11906,6.47524 6.11414,6.48037 6.10905,6.48561 6.10377,6.49092 6.0983,6.49628 6.09264,6.50164 6.08678,6.50698 6.08072,6.51226 6.07444,6.51746 6.06795,6.52252 6.06124,6.52744 6.0543,6.53216 6.04713,6.53665 6.03972,6.54089 6.03207,6.54484 6.02417,6.54847 6.01601,6.55174 6.00759,6.55462 5.99891,6.55707 5.98996,6.55907 5.98074,6.56059 5.97123,6.56157 5.96143,6.562 5.95134,6.56184 5.94096,6.56106 5.93027,6.55963 5.91928,6.5575 5.90796,6.55465 5.89633,6.55104 5.88438,6.54665 5.87209,6.54143 5.85947,6.53536 2.0732,2.74909 2.08582,2.75516 2.09811,2.76038 2.11006,2.76477 2.1217,2.76838 2.13301,2.77122 2.144,2.77335 2.15469,2.77479 2.16507,2.77557 2.17517,2.77573 2.18496,2.7753 2.19447,2.77431 2.20369,2.7728 2.21265,2.7708 2.22133,2.76835 2.22974,2.76547 2.2379,2.7622 2.2458,2.75857 2.25345,2.75462 2.26086,2.75038 2.26803,2.74589 2.27497,2.74117 2.28169,2.73625 2.28818,2.73119 2.29445,2.72599 2.30052,2.72071 2.30637,2.71537 2.31204,2.71 2.3175,2.70465 2.32278,2.69934 2.32787,2.6941 2.33279,2.68897 2.33753,2.68399 2.34111,2.68002 2.34407,2.67642 2.3465,2.67321 2.34848,2.67045 2.35009,2.66819 2.35142,2.66646 2.35256,2.66531 "/>
     <polygon id="_460242736" class="fil1" points="2.99089,1.95467 6.77715,5.74094 6.77616,5.75064 6.77514,5.76024 6.77411,5.76974 6.77305,5.77913 6.77198,5.78843 6.77088,5.79761 6.76976,5.80669 6.76862,5.81566 6.76745,5.82452 6.76626,5.83328 6.76504,5.84193 6.7638,5.85047 6.76254,5.85891 6.76124,5.86722 6.75991,5.87544 6.75856,5.88354 6.75718,5.89152 6.75577,5.8994 6.75432,5.90716 6.75285,5.91481 6.75134,5.92234 6.7498,5.92976 6.74822,5.93706 6.74661,5.94425 6.74496,5.95132 6.74328,5.95827 6.74157,5.9651 6.73981,5.97182 6.73801,5.97841 6.73618,5.98489 6.7343,5.99124 6.73239,5.99748 2.94612,2.2112 2.94804,2.20497 2.94991,2.19862 2.95174,2.19214 2.95354,2.18555 2.9553,2.17883 2.95702,2.172 2.9587,2.16505 2.96034,2.15798 2.96195,2.15079 2.96353,2.14349 2.96507,2.13607 2.96658,2.12854 2.96806,2.12089 2.9695,2.11313 2.97091,2.10525 2.9723,2.09726 2.97365,2.08917 2.97497,2.08095 2.97627,2.07263 2.97754,2.0642 2.97878,2.05566 2.97999,2.04701 2.98118,2.03825 2.98235,2.02939 2.98349,2.02041 2.98461,2.01133 2.98571,2.00215 2.98678,1.99286 2.98784,1.98347 2.98887,1.97397 2.98989,1.96437 "/>
     <polygon id="_460242424" class="fil1" points="2.51922,2.73708 6.30549,6.52335 6.30057,6.51869 6.29521,6.51406 6.28943,6.5095 6.28327,6.505 6.27678,6.50059 6.27002,6.49627 6.263,6.49207 6.25578,6.48798 6.24841,6.48404 6.24092,6.48025 6.23335,6.47662 6.22575,6.47317 6.21817,6.46991 6.21063,6.46685 6.20319,6.46402 6.19589,6.46141 6.18878,6.45905 6.18188,6.45695 6.17525,6.45512 6.16893,6.45357 6.16296,6.45233 6.15738,6.4514 6.15224,6.45079 6.14757,6.45053 6.14343,6.45061 6.13985,6.45107 2.35358,2.6648 2.35716,2.66434 2.36131,2.66426 2.36597,2.66452 2.37111,2.66513 2.37669,2.66606 2.38266,2.6673 2.38898,2.66885 2.39561,2.67068 2.40251,2.67278 2.40963,2.67514 2.41693,2.67774 2.42437,2.68058 2.4319,2.68363 2.43948,2.68689 2.44708,2.69035 2.45465,2.69398 2.46214,2.69777 2.46952,2.70171 2.47673,2.7058 2.48375,2.71 2.49052,2.71431 2.497,2.71873 2.50316,2.72322 2.50894,2.72779 2.51431,2.73241 "/>
     <path id="_460243696" class="fil1" d="M6.27721 6.91303l0 0zm-3.78627 -3.78627l0 0z"/>
     <polygon id="_460243312" class="fil1" points="4.54492,4.69347 8.33119,8.47974 8.33066,8.48857 8.32998,8.49736 8.32915,8.50611 8.32816,8.51483 8.32702,8.52351 8.32571,8.53214 8.32425,8.54074 8.32262,8.5493 8.32083,8.55781 8.31888,8.56628 8.31676,8.5747 8.31448,8.58309 8.31202,8.59143 8.30939,8.59972 8.30659,8.60796 8.30362,8.61617 8.30048,8.62431 8.29715,8.63242 8.29365,8.64047 8.28997,8.64847 8.28611,8.65643 8.28206,8.66433 8.27783,8.67217 8.27341,8.67997 8.26881,8.68771 8.26402,8.6954 8.25904,8.70303 8.25386,8.71061 8.2485,8.71813 8.24293,8.72559 8.23717,8.73299 8.23122,8.74034 4.44495,4.95407 4.45091,4.94672 4.45667,4.93932 4.46223,4.93185 4.46759,4.92433 4.47277,4.91676 4.47775,4.90913 4.48254,4.90144 4.48715,4.8937 4.49156,4.8859 4.49579,4.87806 4.49984,4.87015 4.5037,4.8622 4.50738,4.8542 4.51089,4.84615 4.51421,4.83804 4.51735,4.82989 4.52033,4.82169 4.52313,4.81345 4.52575,4.80515 4.52821,4.79681 4.5305,4.78843 4.53261,4.78001 4.53457,4.77154 4.53635,4.76302 4.53798,4.75447 4.53944,4.74587 4.54075,4.73724 4.54189,4.72856 4.54288,4.71984 4.54372,4.71109 4.54439,4.7023 "/>
     <polygon id="_460243888" class="fil1" points="2.0732,2.74909 5.85947,6.53536 5.8429,6.52763 5.82762,6.51917 5.81359,6.50999 5.80075,6.50013 5.78904,6.48964 2.00277,2.70337 2.01448,2.71386 2.02732,2.72372 2.04135,2.73289 2.05663,2.74136 "/>
     <polygon id="_460243288" class="fil1" points="4.44495,4.95407 8.23122,8.74034 8.22815,8.74738 8.22452,8.7542 8.22034,8.76081 8.21566,8.76722 8.21052,8.77343 8.20495,8.77945 8.199,8.78529 8.19269,8.79096 8.18606,8.79646 8.17916,8.8018 8.17202,8.80699 8.16467,8.81204 8.15716,8.81694 8.14951,8.82173 8.14178,8.82639 8.13398,8.83094 4.34772,5.04467 4.35551,5.04012 4.36324,5.03546 4.37089,5.03067 4.37841,5.02576 4.38575,5.02072 4.39289,5.01553 4.3998,5.01019 4.40642,5.00469 4.41273,4.99902 4.41869,4.99318 4.42425,4.98716 4.42939,4.98095 4.43407,4.97454 4.43825,4.96793 4.44189,4.96111 "/>
     <polygon id="_460243648" class="fil1" points="4.53762,4.56932 8.32389,8.35559 8.33137,8.37442 8.33901,8.39242 8.34674,8.40967 8.35453,8.4262 8.36233,8.44208 8.37008,8.45737 8.37774,8.47213 8.38526,8.48641 8.3926,8.50027 8.3997,8.51377 8.40652,8.52696 8.413,8.5399 8.4191,8.55265 8.42478,8.56527 8.42998,8.57781 8.43465,8.59034 8.43875,8.6029 8.44222,8.61556 8.44503,8.62837 8.44712,8.64139 8.44844,8.65469 8.44896,8.6683 8.4486,8.6823 8.44734,8.69674 8.44511,8.71168 8.44188,8.72717 8.43759,8.74328 8.4322,8.76005 8.42566,8.77756 8.41792,8.79584 8.40893,8.81497 8.39864,8.835 8.39333,8.84623 8.38951,8.85721 8.38711,8.86791 8.38604,8.87832 8.38625,8.88843 8.38765,8.89824 8.39018,8.90771 8.39376,8.91684 8.39833,8.92563 8.4038,8.93404 8.41011,8.94208 8.41719,8.94973 4.63092,5.16346 4.62384,5.15581 4.61753,5.14777 4.61206,5.13935 4.6075,5.13057 4.60391,5.12144 4.60139,5.11196 4.59998,5.10216 4.59978,5.09205 4.60084,5.08164 4.60324,5.07094 4.60707,5.05996 4.61237,5.04872 4.62266,5.0287 4.63165,5.00957 4.63939,4.99128 4.64594,4.97378 4.65133,4.957 4.65561,4.9409 4.65885,4.92541 4.66107,4.91047 4.66233,4.89603 4.66269,4.88203 4.66218,4.86841 4.66085,4.85512 4.65876,4.8421 4.65596,4.82929 4.65248,4.81663 4.64838,4.80407 4.64371,4.79154 4.63851,4.779 4.63283,4.76638 4.62673,4.75363 4.62025,4.74069 4.61343,4.7275 4.60633,4.714 4.599,4.70014 4.59148,4.68586 4.58381,4.6711 4.57606,4.65581 4.56826,4.63993 4.56048,4.62339 4.55274,4.60615 4.54511,4.58815 "/>
     <polygon id="_460243336" class="fil1" points="4.91319,5.03278 8.69945,8.81906 8.69608,8.81589 8.6922,8.81276 8.68801,8.80951 4.90174,5.02324 4.90593,5.02649 4.90981,5.02962 "/>
     <polygon id="_460243192" class="fil1" points="4.34772,5.04467 8.13398,8.83094 8.13031,8.83363 8.12659,8.8363 8.12283,8.83896 8.11904,8.8416 8.11521,8.84424 8.11134,8.84686 8.10744,8.84947 8.10349,8.85207 8.0995,8.85466 8.09548,8.85723 8.09142,8.85979 8.08731,8.86234 8.08317,8.86487 8.07899,8.8674 8.07477,8.86991 8.07051,8.87241 4.28424,5.08613 4.2885,5.08364 4.29272,5.08113 4.29691,5.0786 4.30105,5.07607 4.30515,5.07352 4.30921,5.07096 4.31324,5.06839 4.31722,5.0658 4.32117,5.0632 4.32507,5.06059 4.32894,5.05796 4.33278,5.05533 4.33657,5.05269 4.34032,5.05002 4.34404,5.04735 "/>
     <polygon id="_460243264" class="fil1" points="4.31262,5.10791 8.09889,8.89418 8.10327,8.89867 8.10721,8.90331 8.1107,8.90816 8.11373,8.91326 8.11628,8.91867 8.11837,8.92442 8.11996,8.93057 8.12107,8.93717 8.12167,8.94427 8.12177,8.95191 8.12135,8.96014 4.33509,5.17387 4.3355,5.16563 4.33541,5.158 4.3348,5.1509 4.33369,5.1443 4.3321,5.13815 4.33002,5.13239 4.32746,5.12699 4.32443,5.12189 4.32094,5.11704 4.317,5.11239 "/>
     <polygon id="_460243432" class="fil1" points="4.33509,5.17387 8.12135,8.96014 8.12085,8.96551 8.12017,8.97094 8.1193,8.97639 8.11819,8.98181 8.11679,8.98715 8.11508,8.99237 8.11302,8.99742 8.11056,9.00226 4.32429,5.21598 4.32675,5.21115 4.32881,5.20609 4.33052,5.20087 4.33192,5.19554 4.33303,5.19012 4.33391,5.18467 4.33458,5.17924 "/>
     <polygon id="_460243528" class="fil1" points="3.08191,4.27635 6.86817,8.06263 6.86675,8.06779 6.86544,8.07406 6.86422,8.08137 6.86311,8.08966 6.86209,8.09886 6.86115,8.10891 6.86031,8.11974 6.85954,8.1313 6.85885,8.1435 6.85824,8.15629 6.85769,8.16961 6.85721,8.18338 6.85679,8.19754 6.85643,8.21204 6.85611,8.2268 6.85585,8.24176 6.85563,8.25685 6.85545,8.272 6.85531,8.28717 6.85519,8.30227 6.85511,8.31725 6.85504,8.33204 6.855,8.34657 6.85497,8.36078 6.85495,8.37461 6.85494,8.38798 6.85493,8.40085 6.85492,8.41313 6.8549,8.42476 6.85487,8.43569 6.85483,8.44584 6.85477,8.45516 6.85466,8.46891 6.85454,8.48344 6.85439,8.4987 6.85421,8.51463 6.85399,8.53118 6.85373,8.54829 6.85341,8.56591 6.85303,8.58398 6.85258,8.60245 6.85206,8.62126 6.85144,8.64035 6.85073,8.65967 6.84992,8.67917 6.849,8.69878 6.84796,8.71846 6.84679,8.73815 6.84549,8.75779 6.84404,8.77733 6.84245,8.79671 6.84069,8.81588 6.83877,8.83478 6.83668,8.85335 6.8344,8.87155 6.83193,8.88931 6.82926,8.90658 6.82639,8.92331 6.8233,8.93943 6.81999,8.9549 6.81644,8.96966 6.81266,8.98365 6.80863,8.99682 6.80435,9.00911 3.01808,5.22284 3.02236,5.21055 3.02639,5.19738 3.03017,5.18339 3.03372,5.16863 3.03703,5.15316 3.04012,5.13704 3.043,5.12031 3.04566,5.10304 3.04813,5.08528 3.05041,5.06708 3.0525,5.0485 3.05443,5.02961 3.05618,5.01044 3.05778,4.99106 3.05922,4.97152 3.06052,4.95188 3.06169,4.93219 3.06273,4.91251 3.06365,4.89289 3.06446,4.8734 3.06517,4.85407 3.06579,4.83498 3.06631,4.81618 3.06676,4.79771 3.06714,4.77964 3.06746,4.76202 3.06772,4.74491 3.06794,4.72836 3.06812,4.71243 3.06827,4.69717 3.06839,4.68263 3.0685,4.66889 3.06856,4.65957 3.06861,4.64942 3.06863,4.63849 3.06865,4.62685 3.06867,4.61457 3.06867,4.60171 3.06869,4.58833 3.0687,4.57451 3.06873,4.5603 3.06878,4.54577 3.06884,4.53098 3.06893,4.516 3.06904,4.5009 3.06919,4.48573 3.06936,4.47057 3.06958,4.45548 3.06985,4.44052 3.07016,4.42577 3.07052,4.41127 3.07094,4.39711 3.07143,4.38333 3.07197,4.37002 3.07259,4.35723 3.07328,4.34502 3.07404,4.33347 3.07489,4.32264 3.07582,4.31259 3.07684,4.30339 3.07796,4.2951 3.07917,4.28779 3.08048,4.28152 "/>
     <polygon id="_460243744" class="fil1" points="3.19491,4.36441 6.98118,8.15069 6.97531,8.14534 6.96939,8.14009 6.96341,8.13494 6.95739,8.12986 6.95132,8.12485 6.9452,8.11991 6.93903,8.11503 6.93281,8.11019 6.92655,8.10539 6.92024,8.10063 6.91389,8.09588 6.90748,8.09115 6.90104,8.08643 6.89455,8.0817 6.88802,8.07697 6.88144,8.07222 6.87483,8.06744 6.86817,8.06263 3.08191,4.27635 3.08856,4.28117 3.09518,4.28595 3.10175,4.2907 3.10828,4.29543 3.11477,4.30016 3.12122,4.30488 3.12762,4.30961 3.13397,4.31435 3.14028,4.31912 3.14655,4.32392 3.15276,4.32876 3.15893,4.33364 3.16505,4.33858 3.17112,4.34359 3.17715,4.34867 3.18312,4.35382 3.18904,4.35907 "/>
     <polygon id="_460244464" class="fil1" points="3.6487,4.93983 7.43497,8.7261 7.43128,8.72293 7.42743,8.71965 7.42341,8.71625 7.41923,8.71274 7.4149,8.70912 7.41043,8.7054 7.40583,8.70159 7.40109,8.69768 7.39622,8.69369 7.39125,8.68962 7.38616,8.68547 7.38096,8.68124 7.37567,8.67696 7.37029,8.6726 7.36482,8.66819 7.35927,8.66372 7.35365,8.65921 7.34797,8.65465 7.34223,8.65006 7.33644,8.64542 7.3306,8.64076 7.32472,8.63607 7.31881,8.63136 7.31287,8.62664 7.30692,8.6219 7.30095,8.61716 7.29498,8.61241 7.289,8.60767 7.28304,8.60294 7.27708,8.59821 7.27115,8.59351 7.26524,8.58882 7.25935,8.58415 7.25348,8.5795 7.24764,8.57487 7.24182,8.57026 7.23605,8.56567 7.23031,8.56111 7.22463,8.55659 7.219,8.55209 7.21344,8.54764 7.20794,8.54322 7.20251,8.53885 7.19716,8.53452 7.1919,8.53025 7.18673,8.52602 7.18165,8.52185 7.17668,8.51773 7.17181,8.51368 7.16707,8.50969 7.16244,8.50576 7.15794,8.50191 7.15357,8.49812 7.14933,8.49441 7.14525,8.49078 7.14131,8.48723 7.13753,8.48377 3.35126,4.6975 3.35504,4.70096 3.35898,4.70451 3.36307,4.70814 3.3673,4.71185 3.37167,4.71563 3.37617,4.71949 3.3808,4.72342 3.38555,4.72741 3.39041,4.73146 3.39539,4.73558 3.40046,4.73975 3.40563,4.74398 3.41089,4.74825 3.41624,4.75258 3.42167,4.75695 3.42717,4.76137 3.43274,4.76582 3.43837,4.77031 3.44405,4.77484 3.44978,4.7794 3.45556,4.78398 3.46137,4.78859 3.46721,4.79323 3.47308,4.79788 3.47897,4.80255 3.48488,4.80724 3.49081,4.81194 3.49677,4.81667 3.50274,4.8214 3.50871,4.82614 3.51468,4.83089 3.52065,4.83563 3.52661,4.84037 3.53254,4.84509 3.53845,4.8498 3.54433,4.85449 3.55017,4.85915 3.55596,4.86378 3.5617,4.86838 3.56739,4.87294 3.573,4.87745 3.57855,4.88192 3.58402,4.88633 3.5894,4.89069 3.59469,4.89497 3.59989,4.8992 3.60498,4.90335 3.60996,4.90742 3.61482,4.91141 3.61956,4.91531 3.62417,4.91913 3.62863,4.92285 3.63296,4.92646 3.63714,4.92998 3.64116,4.93338 3.64502,4.93666 "/>
     <polygon id="_460244416" class="fil1" points="4.32429,5.21598 8.11056,9.00226 8.10806,9.00633 8.10534,9.01015 8.10239,9.01372 8.09924,9.01705 8.09588,9.02015 8.09234,9.02303 8.08863,9.02569 8.08475,9.02815 8.08072,9.03041 8.07655,9.03247 8.07225,9.03436 8.06783,9.03607 8.0633,9.03763 8.05867,9.03902 8.05396,9.04026 8.04918,9.04137 8.04433,9.04234 8.03943,9.0432 8.0345,9.04393 8.02953,9.04456 8.02454,9.04509 8.01955,9.04554 8.01457,9.0459 8.00959,9.04619 8.00465,9.04641 7.99975,9.04657 7.99489,9.04669 7.9901,9.04677 7.98538,9.04681 7.98074,9.04683 7.9762,9.04684 7.97177,9.04684 7.96655,9.04685 7.9608,9.04687 7.95452,9.04691 7.94773,9.04696 7.94046,9.04702 7.93271,9.04709 7.9245,9.04718 7.91586,9.04728 7.90678,9.04739 7.8973,9.04751 7.88743,9.04764 7.87717,9.04778 7.86656,9.04793 7.8556,9.04809 7.84431,9.04826 7.83272,9.04844 7.82082,9.04862 7.80865,9.04881 7.7962,9.04901 7.78352,9.04921 7.77059,9.04943 7.75746,9.04964 7.74413,9.04986 7.73061,9.05009 7.71692,9.05032 7.70308,9.05055 7.68911,9.05079 7.67502,9.05103 7.66083,9.05127 7.64655,9.05152 7.6322,9.05176 7.6178,9.05201 7.59923,9.0525 7.58014,9.05329 7.56056,9.05433 7.54056,9.05557 7.52017,9.05695 7.49944,9.05841 7.47842,9.0599 7.45716,9.06135 7.4357,9.06272 7.41409,9.06394 7.39237,9.06496 7.3706,9.06572 7.34883,9.06617 7.32709,9.06624 7.30543,9.06589 7.28391,9.06506 7.26257,9.06368 7.24145,9.0617 7.22061,9.05907 7.20009,9.05574 7.17994,9.05163 7.1602,9.0467 7.14093,9.04089 7.12216,9.03414 7.10395,9.02639 7.08635,9.0176 7.06939,9.0077 7.05314,8.99664 7.03762,8.98435 3.25135,5.19808 3.26687,5.21037 3.28313,5.22143 3.30008,5.23133 3.31769,5.24012 3.33589,5.24787 3.35466,5.25461 3.37393,5.26043 3.39367,5.26536 3.41382,5.26946 3.43434,5.2728 3.45519,5.27543 3.4763,5.27741 3.49764,5.27878 3.51916,5.27962 3.54082,5.27997 3.56256,5.2799 3.58433,5.27945 3.60611,5.27869 3.62782,5.27767 3.64943,5.27645 3.67089,5.27508 3.69215,5.27363 3.71317,5.27214 3.7339,5.27068 3.75429,5.2693 3.7743,5.26806 3.79387,5.26702 3.81296,5.26622 3.83153,5.26574 3.84593,5.26549 3.86028,5.26524 3.87456,5.265 3.88876,5.26476 3.90285,5.26452 3.91681,5.26428 3.93065,5.26405 3.94434,5.26381 3.95786,5.26359 3.97119,5.26337 3.98433,5.26315 3.99725,5.26294 4.00994,5.26274 4.02238,5.26254 4.03455,5.26235 4.04645,5.26217 4.05805,5.26199 4.06933,5.26182 4.08029,5.26166 4.09091,5.26151 4.10116,5.26137 4.11104,5.26124 4.12052,5.26112 4.12959,5.26101 4.13824,5.26091 4.14644,5.26082 4.15419,5.26075 4.16146,5.26069 4.16825,5.26063 4.17453,5.2606 4.18028,5.26058 4.1855,5.26057 4.18994,5.26057 4.19448,5.26056 4.19911,5.26054 4.20383,5.2605 4.20863,5.26042 4.21348,5.2603 4.21839,5.26013 4.22333,5.25991 4.2283,5.25963 4.23328,5.25926 4.23828,5.25882 4.24326,5.25829 4.24823,5.25766 4.25317,5.25693 4.25806,5.25607 4.26291,5.2551 4.26769,5.25399 4.27241,5.25275 4.27703,5.25135 4.28156,5.2498 4.28598,5.24809 4.29028,5.2462 4.29445,5.24413 4.29848,5.24187 4.30236,5.23942 4.30607,5.23676 4.30961,5.23388 4.31297,5.23078 4.31612,5.22745 4.31907,5.22388 4.3218,5.22006 "/>
     <polygon id="_460244440" class="fil1" points="3.01808,5.22284 6.80435,9.00911 6.80152,9.01587 6.7983,9.02208 6.79471,9.02776 6.79076,9.03294 6.78648,9.03763 6.78188,9.04186 6.77697,9.04564 6.77178,9.04901 6.76632,9.05198 6.76061,9.05457 6.75467,9.05681 6.74852,9.05871 6.74217,9.06031 6.73564,9.06161 6.72894,9.06265 6.72211,9.06344 6.71515,9.06401 6.70808,9.06437 6.70091,9.06456 6.69368,9.06459 6.68639,9.06448 6.67906,9.06425 6.6717,9.06393 6.66435,9.06355 6.657,9.06311 6.6497,9.06264 6.64244,9.06217 6.63524,9.06171 6.62813,9.06129 6.62113,9.06093 6.61424,9.06064 6.60749,9.06046 2.82122,5.27419 2.82797,5.27437 2.83486,5.27465 2.84187,5.27502 2.84898,5.27544 2.85617,5.27589 2.86343,5.27637 2.87074,5.27683 2.87808,5.27728 2.88543,5.27766 2.89279,5.27798 2.90012,5.2782 2.90741,5.27831 2.91465,5.27829 2.92181,5.2781 2.92888,5.27774 2.93584,5.27717 2.94268,5.27638 2.94937,5.27534 2.9559,5.27404 2.96225,5.27244 2.96841,5.27054 2.97435,5.2683 2.98006,5.2657 2.98551,5.26274 2.9907,5.25937 2.99561,5.25559 3.00021,5.25136 3.0045,5.24667 3.00844,5.24149 3.01203,5.23581 3.01525,5.2296 "/>
     <polygon id="_460244344" class="fil1" points="2.82122,5.27419 6.60749,9.06046 6.6,9.06023 6.59205,9.05974 6.58368,9.05898 6.57495,9.05795 6.56591,9.05665 6.55661,9.05509 6.54711,9.05326 6.53744,9.05115 6.52769,9.04877 6.51787,9.04612 6.50807,9.0432 6.49831,9.04 6.48867,9.03652 6.47918,9.03276 6.4699,9.02872 6.46089,9.02441 6.45219,9.01981 6.44386,9.01493 6.43595,9.00976 6.42851,9.00431 6.42159,8.99857 2.63532,5.2123 2.64224,5.21804 2.64968,5.22349 2.65759,5.22865 2.66592,5.23354 2.67462,5.23813 2.68363,5.24245 2.69291,5.24649 2.7024,5.25024 2.71205,5.25372 2.7218,5.25693 2.73161,5.25985 2.74142,5.2625 2.75118,5.26488 2.76084,5.26698 2.77034,5.26882 2.77964,5.27038 2.78869,5.27168 2.79741,5.2727 2.80578,5.27346 2.81374,5.27396 "/>
     <polygon id="_460244512" class="fil1" points="4.91219,5.08037 8.69846,8.86665 8.69763,8.87129 8.69685,8.87586 8.69609,8.88037 8.69536,8.88481 8.69463,8.88918 8.69392,8.8935 8.6932,8.89776 8.69248,8.90196 8.69173,8.90611 8.69096,8.91022 8.69017,8.91428 8.68933,8.91829 8.68844,8.92226 8.68751,8.9262 8.68651,8.9301 8.68544,8.93397 8.6843,8.93781 8.68306,8.94162 8.68174,8.94541 8.68032,8.94918 8.67879,8.95293 8.67715,8.95666 8.67539,8.96038 8.67349,8.96409 8.67146,8.9678 8.66929,8.9715 8.66696,8.97519 8.66448,8.97889 8.66182,8.98259 8.65899,8.9863 8.65598,8.99002 8.65278,8.99375 4.86652,5.20748 4.86972,5.20375 4.87272,5.20003 4.87556,5.19632 4.87821,5.19262 4.88069,5.18892 4.88302,5.18522 4.8852,5.18153 4.88722,5.17782 4.88912,5.17411 4.89088,5.17039 4.89252,5.16666 4.89406,5.16291 4.89548,5.15914 4.8968,5.15535 4.89803,5.15154 4.89917,5.1477 4.90024,5.14383 4.90124,5.13993 4.90218,5.13599 4.90306,5.13202 4.9039,5.128 4.9047,5.12395 4.90546,5.11984 4.90621,5.11569 4.90693,5.11148 4.90765,5.10723 4.90837,5.10291 4.90909,5.09854 4.90983,5.09409 4.91058,5.08959 4.91137,5.08502 "/>
     <polygon id="_460244320" class="fil1" points="4.86652,5.20748 8.65278,8.99375 8.6437,9.00281 8.63363,9.01063 8.62267,9.01725 8.61091,9.02268 8.59846,9.02696 8.58541,9.03013 8.57188,9.0322 8.55795,9.03322 8.54373,9.03321 8.52931,9.0322 8.51481,9.03022 8.50031,9.0273 8.48593,9.02347 8.47175,9.01876 8.45788,9.0132 8.44442,9.00682 8.43146,8.99966 8.41912,8.99173 8.40748,8.98307 8.39666,8.97372 4.61039,5.18745 4.62122,5.1968 4.63285,5.20546 4.6452,5.21339 4.65815,5.22055 4.67161,5.22693 4.68548,5.23249 4.69966,5.2372 4.71405,5.24102 4.72854,5.24394 4.74305,5.24593 4.75746,5.24694 4.77168,5.24695 4.78561,5.24593 4.79915,5.24386 4.81219,5.24069 4.82464,5.23641 4.8364,5.23098 4.84736,5.22436 4.85744,5.21654 "/>
     <polygon id="_460244032" class="fil1" points="4.92111,5.03152 8.70738,8.81779 8.7099,8.82092 8.71162,8.82438 8.7126,8.82813 8.71291,8.83211 8.71261,8.83629 8.71176,8.84062 8.71043,8.84504 8.70869,8.84952 8.70659,8.854 8.7042,8.85844 8.70159,8.8628 8.69882,8.86703 4.91256,5.08076 4.91533,5.07653 4.91793,5.07217 4.92032,5.06773 4.92242,5.06324 4.92416,5.05877 4.92549,5.05435 4.92634,5.05002 4.92664,5.04584 4.92633,5.04186 4.92535,5.03811 4.92363,5.03465 "/>
     <polygon id="_460244272" class="fil1" points="2.85794,1.55835 6.6442,5.34463 6.64801,5.34911 6.64847,5.34974 6.64974,5.3515 6.65176,5.35435 6.65448,5.35826 6.65782,5.36318 6.66175,5.36908 6.66619,5.37592 6.67109,5.38365 6.67641,5.39226 6.68206,5.40168 6.688,5.4119 6.69417,5.42286 6.70052,5.43454 6.70698,5.44688 6.7135,5.45987 6.72002,5.47344 6.72648,5.48758 6.73282,5.50224 6.73899,5.51739 6.74493,5.53298 6.75058,5.54897 6.75589,5.56534 6.76078,5.58204 6.76522,5.59903 6.76914,5.61627 6.77248,5.63373 6.77518,5.65137 6.77719,5.66916 6.77845,5.68704 6.77891,5.705 6.77849,5.72297 6.77715,5.74094 2.99089,1.95467 2.99222,1.9367 2.99264,1.91872 2.99219,1.90077 2.99093,1.88289 2.98891,1.8651 2.98621,1.84746 2.98287,1.83 2.97895,1.81276 2.97452,1.79576 2.96962,1.77907 2.96431,1.7627 2.95866,1.7467 2.95272,1.73112 2.94656,1.71597 2.94021,1.70131 2.93375,1.68717 2.92723,1.67359 2.92071,1.66061 2.91425,1.64826 2.90791,1.63659 2.90173,1.62563 2.89579,1.61541 2.89014,1.60598 2.88483,1.59738 2.87992,1.58965 2.87548,1.58281 2.87156,1.57691 2.86821,1.57199 2.8655,1.56808 2.86347,1.56523 2.8622,1.56347 2.86174,1.56284 "/>
     <polygon id="_460243984" class="fil1" points="2.95331,2.21839 6.73958,6.00466 6.74709,6.01255 6.7549,6.02113 6.76301,6.03039 6.77142,6.0403 6.78012,6.05085 6.7891,6.06202 6.79835,6.07379 6.80787,6.08615 6.81765,6.09908 6.82769,6.11256 6.83797,6.12657 6.84849,6.14109 6.85925,6.15611 6.87023,6.17161 6.88144,6.18757 6.89286,6.20398 6.90448,6.22081 6.91631,6.23806 6.92833,6.25569 6.94054,6.2737 6.95293,6.29206 6.96549,6.31076 6.97822,6.32979 6.99111,6.34911 7.00415,6.36872 7.01734,6.3886 7.03067,6.40873 7.04414,6.42909 7.05772,6.44966 7.07144,6.47043 7.08526,6.49139 7.11341,6.53333 7.14344,6.57678 7.17521,6.62161 7.20858,6.66772 7.24341,6.715 7.27954,6.76333 7.31684,6.81262 7.35517,6.86274 7.39438,6.9136 7.43433,6.96508 7.47487,7.01707 7.51587,7.06947 7.55718,7.12217 7.59866,7.17505 7.64016,7.22801 7.68154,7.28093 7.72266,7.33372 7.76337,7.38626 7.80354,7.43844 7.84302,7.49015 7.88166,7.54128 7.91933,7.59173 7.95587,7.64139 7.99116,7.69014 8.02504,7.73787 8.05737,7.78449 8.08801,7.82987 8.11681,7.87392 8.14364,7.91652 8.16835,7.95756 8.1908,7.99693 8.21083,8.03453 8.21602,8.04473 8.22111,8.05493 8.22611,8.06512 8.23102,8.07531 8.23584,8.0855 8.24056,8.09568 8.24518,8.10586 8.2497,8.11602 8.25413,8.12618 8.25844,8.13633 8.26266,8.14647 8.26677,8.1566 8.27076,8.16672 8.27465,8.17682 8.27843,8.18691 8.2821,8.19699 8.28565,8.20705 8.28908,8.21709 8.29239,8.22712 8.29559,8.23713 8.29866,8.24713 8.3016,8.2571 8.30443,8.26706 8.30712,8.27699 8.30969,8.2869 8.31212,8.29679 8.31443,8.30665 8.31659,8.31649 8.31863,8.32631 8.32052,8.33609 8.32228,8.34585 8.32389,8.35559 4.53762,4.56932 4.53601,4.55958 4.53425,4.54982 4.53236,4.54004 4.53033,4.53022 4.52816,4.52038 4.52585,4.51052 4.52342,4.50063 4.52085,4.49072 4.51816,4.48078 4.51533,4.47083 4.51239,4.46085 4.50932,4.45086 4.50612,4.44085 4.50281,4.43082 4.49938,4.42078 4.49583,4.41072 4.49217,4.40064 4.48839,4.39055 4.4845,4.38044 4.4805,4.37033 4.47639,4.3602 4.47218,4.35006 4.46786,4.33991 4.46344,4.32975 4.45891,4.31959 4.45429,4.30941 4.44957,4.29923 4.44476,4.28904 4.43985,4.27885 4.43484,4.26866 4.42975,4.25846 4.42457,4.24826 4.40453,4.21066 4.38208,4.17129 4.35737,4.13025 4.33055,4.08765 4.30174,4.0436 4.2711,3.99822 4.23877,3.9516 4.20489,3.90387 4.16961,3.85511 4.13306,3.80546 4.09539,3.75501 4.05675,3.70387 4.01727,3.65217 3.97711,3.59999 3.93639,3.54745 3.89527,3.49466 3.85389,3.44174 3.81239,3.38878 3.77091,3.3359 3.7296,3.2832 3.68861,3.2308 3.64806,3.17881 3.60811,3.12733 3.5689,3.07647 3.53057,3.02635 3.49327,2.97706 3.45714,2.92873 3.42231,2.88145 3.38894,2.83534 3.35717,2.79051 3.32714,2.74706 3.29899,2.70511 3.28517,2.68416 3.27146,2.66339 3.25787,2.64282 3.24441,2.62246 3.23107,2.60233 3.21789,2.58245 3.20484,2.56284 3.19195,2.54352 3.17922,2.52449 3.16666,2.50579 3.15427,2.48743 3.14206,2.46942 3.13004,2.45179 3.11822,2.43454 3.10659,2.41771 3.09517,2.4013 3.08396,2.38534 3.07298,2.36984 3.06222,2.35482 3.0517,2.3403 3.04142,2.32628 3.03138,2.31281 3.0216,2.29988 3.01208,2.28752 3.00283,2.27574 2.99385,2.26457 2.98515,2.25402 2.97674,2.24411 2.96863,2.23486 2.96082,2.22628 "/>
    </g>
    <path id="_637667296" class="fil1" d="M2.57818 3.69205l-7.08661e-005 -3.93701e-005c4.33071e-005,0 5.51181e-005,1.9685e-005 7.08661e-005,3.93701e-005zm-0.0872402 -0.565287l0 0zm0.455181 -0.915555c0.075,0.0727559 0.204839,0.269539 0.35287,0.493909 0.289709,0.439114 0.925173,1.15197 1.12557,1.54314 0.055752,0.108823 0.0965945,0.217382 0.113055,0.321063 0.0788543,0.205409 0.191583,0.26078 0.074748,0.479406 -0.0647677,0.121197 0.136335,0.200063 0.209811,0.165362 0.0572717,-0.0270433 0.0650787,-0.0974055 0.0936535,-0.159614 0.00744882,-0.0162205 -0.00266535,-0.0222717 -0.0140945,-0.0312362 0.0368898,0.00569685 0.0259016,0.0354134 0.010815,0.0575236l-0.000366142 -0.000385827c-0.00898425,0.0499252 -0.0105039,0.0872402 -0.0456732,0.127106 -0.0911969,0.103362 -0.368957,-0.00987008 -0.286472,-0.175906 0.079252,-0.159516 0.029311,-0.222795 -0.035122,-0.338106 -0.00481102,0.0943622 -0.035374,0.182567 -0.0999724,0.260598 -0.0147402,0.0381535 -0.0555906,0.066626 -0.0972323,0.0906024 -0.0195197,0.0143425 -0.0406417,0.0281811 -0.0634724,0.0414646 0.0357795,0.0239331 0.0544449,0.0421654 0.0508425,0.0877323 -0.00116929,0.0142087 -0.00368504,0.0295354 -0.0107953,0.0421181 -0.0253386,0.0448543 -0.0920827,0.0445866 -0.138791,0.0445866 -0.0527205,0 -0.200094,0.00252756 -0.353972,0.00516535 -0.195059,0.00334252 -0.488047,0.0689173 -0.621768,-0.112394 -0.0687087,-0.0931614 -0.0365591,-0.187425 0.103039,-0.197701 0.110394,-0.00812598 0.229717,-0.0141102 0.335902,-0.015811 -0.0383976,-0.0331339 -0.106882,-0.0874449 -0.169728,-0.13728 -0.0629016,-0.0498819 -0.123492,-0.0974449 -0.149299,-0.126732 -0.0372559,-0.0419803 -0.0597008,-0.0939213 -0.0646969,-0.141953 -0.00124409,-0.0304094 0.00104331,-0.0568819 0.00635827,-0.0798425 -0.0539016,-0.0818701 -0.118201,-0.12611 -0.189429,-0.177669 -0.015748,0.048937 -0.0126417,0.297894 -0.0134016,0.392531 -0.00114567,0.142272 -0.00333465,0.42772 -0.0504252,0.553953 -0.0280197,0.0751299 -0.125657,0.0526339 -0.196854,0.0513543 -0.0771929,-0.00107087 -0.242909,-0.0469921 -0.21252,-0.14428 0.00797638,-0.0255394 0.0262008,-0.0430039 0.0558819,-0.0479252 0.0551063,-0.00911024 0.0920039,-0.0705315 0.0907126,-0.12263 -0.00133465,-0.0532953 0.0123228,-0.76087 0.0151929,-0.907256 0.00351575,-0.179189 -0.103343,-0.233012 -0.192339,-0.360035 -1.5748e-005,-1.9685e-005 -2.75591e-005,-3.93701e-005 -1.5748e-005,-7.87402e-005 -0.0728425,-0.103988 -0.129193,-0.254787 -0.0872047,-0.565213 0.0157874,-0.116717 0.0560984,-0.309409 0.0457992,-0.361555 -0.00972441,-0.049248 -0.148114,-0.107264 -0.18315,-0.100425 -0.00267323,0.000503937 -0.00559449,0.00818898 -0.0160512,0.0191929 -0.0496969,0.0523031 -0.127886,0.134555 -0.264331,0.0650984 -0.183878,-0.0782835 -0.137102,-0.289673 -0.155449,-0.444689l-0.0020748 -0.0026378 -0.000287402 -0.00038189c-0.00762598,-0.0104173 -0.0121811,-0.0217717 -0.0141929,-0.0334567 -0.000125984,-0.000822835 -0.000255906,-0.00164173 -0.000370079,-0.00246457 -0.00409055,-0.0291929 0.00741732,-0.0602047 0.0265827,-0.0838071 0.0435315,-0.0536024 0.113,-0.0649961 0.174106,-0.0321969 0.00562598,0.00301969 0.0329921,-0.00910236 0.0406457,-0.0134646 0.0659094,-0.0375787 0.112197,-0.137374 0.173685,-0.16974 0.0519291,-0.0273346 0.128815,-0.049811 0.351248,-0.0427598l0.125394 -0.350579 7.08661e-005 2.3622e-005c0.010378,-0.029189 0.0501299,-0.0360551 0.0691811,-0.0100945 0.000425197,0.00057874 0.148551,0.20037 0.129146,0.391831 -0.0105394,0.104039 -0.0241181,0.190701 -0.0447638,0.256535z"/>
   </g>
  </g>
  <path class="fil2" d="M3.41333 -3.93701e-006c1.88513,0 3.41333,1.5282 3.41333,3.41333 0,1.88513 -1.5282,3.41333 -3.41333,3.41333 -1.88513,0 -3.41333,-1.5282 -3.41333,-3.41333 0,-1.88513 1.5282,-3.41333 3.41333,-3.41333z"/>
  <path class="fil3" d="M4.5335 4.55836c0.0789488,0.214484 0.197764,0.267898 0.078874,0.490366 -0.0647677,0.121197 0.136335,0.200063 0.209811,0.165362 0.0572717,-0.0270433 0.0650787,-0.0974055 0.0936535,-0.159614 0.00744882,-0.0162205 -0.00266535,-0.0222717 -0.0140945,-0.0312362 0.0368898,0.00569685 0.0259016,0.0354134 0.010815,0.0575236l-0.000366142 -0.000385827c-0.00898425,0.0499252 -0.0105039,0.0872402 -0.0456732,0.127106 -0.0911969,0.103362 -0.368957,-0.00987008 -0.286472,-0.175906 0.103472,-0.208264 -0.0132756,-0.252484 -0.0949764,-0.462638 -0.00292126,-0.013374 0.00555118,-0.0265827 0.0189252,-0.0295039 0.013374,-0.00292126 0.0265827,0.00555118 0.0295039,0.0189252z"/>
  <path class="fil4" d="M4.42457 4.24826c0.164543,0.321177 0.19952,0.640102 -0.140323,0.837878 0.0267638,0.0179213 0.0534252,0.0370512 0.0512835,0.0807047 -0.00183465,0.0373504 -0.0105906,0.0612283 -0.0423819,0.0780472 -0.0223976,0.0118504 -0.0547244,0.015685 -0.107646,0.015685 -0.0527205,0 -0.200094,0.00252756 -0.353972,0.00516535 -0.195059,0.00334252 -0.488047,0.0689173 -0.621768,-0.112394 -0.0150906,-0.0204606 -0.0261417,-0.0421693 -0.0313346,-0.0635866 -0.00622047,-0.0256457 -0.00427953,-0.0506063 0.00825984,-0.0729685 0.0183386,-0.0327087 0.0578543,-0.0561063 0.126114,-0.0611457 0.0747441,-0.00551181 0.144169,-0.00938189 0.207012,-0.0119843 0.0485591,-0.00201575 0.0915197,-0.00322835 0.12889,-0.00382677 -0.0383976,-0.0331339 -0.106882,-0.0874449 -0.169728,-0.13728 -0.0616614,-0.0489016 -0.118366,-0.0938701 -0.143472,-0.120374 -0.0629488,-0.0664606 -0.0810157,-0.155665 -0.0620157,-0.224862 -0.0543386,-0.0839882 -0.119402,-0.128713 -0.191579,-0.180961 -0.0309173,0.0960669 0.0155472,0.733661 -0.0638268,0.946484 -0.0280197,0.0751299 -0.125657,0.0526339 -0.196854,0.0513543 -0.0771929,-0.00107087 -0.242909,-0.0469921 -0.21252,-0.14428 0.00797638,-0.0255394 0.0262008,-0.0430039 0.0558819,-0.0479252 0.0551063,-0.00911024 0.0920039,-0.0705315 0.0907126,-0.12263 -0.000582677,-0.0230039 0.0033937,-0.265043 0.00794882,-0.515 0.00294488,-0.16135 0.00545276,-0.301217 0.00724409,-0.392256 0.00672047,-0.34126 -0.395783,-0.24115 -0.269339,-0.992472 0.0224764,-0.133528 0.0424567,-0.252244 0.0358661,-0.293016l-0.000287402 -0.0013937c-0.00892913,-0.0472992 -0.141425,-0.105343 -0.182252,-0.100606l-0.000897638 0.000181102c-0.00267323,0.000503937 -0.00559449,0.00818898 -0.0160512,0.0191929 -0.0496969,0.0523031 -0.127886,0.134555 -0.264331,0.0650984 -0.183878,-0.0782835 -0.137102,-0.289673 -0.155449,-0.444689 -0.018437,-0.0224646 -0.0217598,-0.0513701 -0.0133661,-0.079815 0.00442126,-0.0149646 0.0123228,-0.0297559 0.0230236,-0.0429331 0.00974016,-0.0119921 0.0219606,-0.022815 0.0361063,-0.0313268 0.000818898,-0.000551181 0.00165748,-0.0010748 0.00252756,-0.0015748 0.0368937,-0.0210787 0.0855669,-0.0269094 0.136567,0.00129921 0.0894331,-0.0127087 0.140051,-0.145272 0.213236,-0.183799 0.0519291,-0.0273346 0.128815,-0.049811 0.351248,-0.0427598l0.125394 -0.350579 7.08661e-005 2.3622e-005c0.00256299,-0.00720866 0.00724016,-0.013752 0.013874,-0.0186142 0.017626,-0.0129173 0.0423898,-0.00910236 0.0553071,0.00851969 0.000425197,0.00057874 0.148551,0.20037 0.129146,0.391831 -0.00916535,0.0905 -0.0192835,0.151783 -0.0285984,0.194646 -0.00574409,0.0264291 -0.0112874,0.0463346 -0.0161654,0.0618898 0.075,0.0727559 0.204839,0.269539 0.35287,0.493909 0.289709,0.439114 0.925173,1.15197 1.12557,1.54314z"/>
  <path class="fil4" d="M1.9037 2.27841c0.00208268,0.00426772 0.00437402,0.0085 0.00687402,0.0126811 0.0402677,0.0673465 0.119803,0.0958583 0.177638,0.0636811 0.0578346,-0.0321811 0.0720748,-0.112862 0.0317992,-0.180209 -0.00539764,-0.00902756 -0.0115,-0.0173583 -0.0181614,-0.0249331 -0.0507244,-0.0277323 -0.0990906,-0.0218583 -0.135803,-0.00088189 -0.000870079,0.0005 -0.00170866,0.00102362 -0.00252756,0.0015748 -0.0141457,0.00851181 -0.0263661,0.0193346 -0.0361063,0.0313268 -0.0107008,0.0131772 -0.0186024,0.0279685 -0.0230236,0.0429331 -0.00542126,0.0183701 -0.00595669,0.0369291 -0.000688976,0.0538268z"/>
  <path class="fil5" d="M1.91775 2.3044c0.0183465,0.155016 -0.0284291,0.366406 0.155449,0.444689 0.136445,0.0694567 0.214634,-0.0127953 0.264331,-0.0650984 0.0104567,-0.0110039 0.013378,-0.018689 0.0160512,-0.0191929l0.000897638 -0.000181102c0.0408268,-0.00473622 0.173323,0.0533071 0.182252,0.100606l0.000287402 0.0013937c0.00659055,0.0407717 -0.0133898,0.159488 -0.0358661,0.293016 -0.00390157,0.0231772 -0.00729921,0.0455472 -0.0102205,0.0671457 0.00334646,-0.00665354 0.00566929,-0.0112992 0.00581102,-0.0115236 0.0320276,-0.050126 0.0160315,-0.0276496 0.0554016,-0.064437 0.0412087,-0.0385079 0.112287,-0.0685551 0.155587,-0.0933976l0.0045 -0.00258268c0.091622,-0.0525709 0.130622,-0.0723386 0.163106,-0.180516 0.0191732,-0.0638465 -0.00103543,-0.176937 -0.0694921,-0.201835 -0.0661299,-0.0240512 -0.0970827,-0.0146732 -0.161783,-0.0309843l-0.00884646 -0.00427953c-0.102315,-0.0494646 -0.108055,0.0077874 -0.19948,-0.110583 -0.0722205,-0.0935079 -0.181272,-0.0858465 -0.2115,-0.135146 -0.0471693,-0.076937 -0.00519685,-0.154402 -0.000429134,-0.233945 -0.0355039,0.0433425 -0.072626,0.0855984 -0.121197,0.0925 -0.000251969,-0.000137795 -0.000507874,-0.000279528 -0.00076378,-0.000417323 0.00666142,0.0075748 0.0127638,0.0159055 0.0181614,0.0249331 0.0402756,0.0673465 0.0260354,0.148028 -0.0317992,0.180209 -0.0578346,0.0321772 -0.13737,0.00366535 -0.177638,-0.0636811 -0.0025,-0.0041811 -0.00479134,-0.00841339 -0.00687402,-0.0126811 0.00288976,0.00926378 0.00752362,0.0180315 0.0140551,0.0259882z"/>
  <path class="fil6" d="M3.96582 4.54209c-0.29972,-0.205705 -0.714657,-0.345819 -0.700846,-0.00822441 0.00525591,0.0504843 0.0297795,0.105291 0.0705236,0.148311 0.0251063,0.0265039 0.081811,0.0714724 0.143472,0.120374 0.0628465,0.0498346 0.131331,0.104146 0.169728,0.13728 -0.0373701,0.000598425 -0.0803307,0.00181102 -0.12889,0.00382677 -0.0628425,0.00260236 -0.132268,0.00647244 -0.207012,0.0119843 -0.0682598,0.00503937 -0.107776,0.028437 -0.126114,0.0611457 -0.0125394,0.0223622 -0.0144803,0.0473228 -0.00825984,0.0729685 0.00519291,0.0214173 0.0162441,0.043126 0.0313346,0.0635866 0.13372,0.181311 0.426709,0.115736 0.621768,0.112394 0.153878,-0.0026378 0.301252,-0.00516535 0.353972,-0.00516535 0.0529213,0 0.085248,-0.00383465 0.107646,-0.015685 0.0317913,-0.0168189 0.0405472,-0.0406969 0.0423819,-0.0780472 0.00195276,-0.0397835 -0.0200197,-0.0592008 -0.0441929,-0.0758976 -0.00599606,-0.000720472 -0.0272638,0.00177953 -0.0206535,-0.00252756 0.117079,-0.076248 0.464264,-0.166429 -0.304858,-0.546323z"/>
  <path class="fil5" d="M3.01808 5.22284c0.055622,-0.149126 0.0494488,-0.506823 0.0514134,-0.740622 -0.00479921,-0.00461024 -0.00834252,-0.00872835 -0.0093622,-0.0136575 -0.0221063,-0.00509843 -0.0585945,-0.0267559 -0.0742126,-0.0421969 -0.0701417,-0.0435157 -0.129024,-0.193685 -0.100476,-0.246539 0.0775276,-0.143555 0.0195787,-0.152311 -0.0654685,-0.249528 -0.0420197,-0.0480394 -0.0899213,-0.111543 -0.122071,-0.163913 -0.0107913,-0.0175866 -0.0706732,-0.0482638 -0.119791,-0.074374 0.0863504,0.123272 0.195913,0.180693 0.192382,0.360094 -0.00179134,0.0910394 -0.00429921,0.230906 -0.00724409,0.392256 -0.00455512,0.249957 -0.0085315,0.491996 -0.00794882,0.515 0.00129134,0.0520984 -0.0356063,0.11352 -0.0907126,0.12263 -0.0296811,0.00492126 -0.0479055,0.0223858 -0.0558819,0.0479252 -0.0303898,0.0972874 0.135327,0.143209 0.21252,0.14428 0.0711969,0.00127953 0.168835,0.0237756 0.196854,-0.0513543z"/>
  <path class="fil5" d="M3.94223 5.14932c-0.26228,0 -0.0730157,-0.104 -0.193575,-0.136402 -0.0225118,-0.00604724 -0.0494843,-0.0130236 -0.0714094,-0.0137953 -0.269535,-0.00948819 -0.282146,0.0358701 -0.274402,-0.0495039 -0.0290394,0.00174409 -0.0590866,0.00374803 -0.0900433,0.00602756 -0.0682598,0.00503937 -0.107776,0.028437 -0.126114,0.0611457 -0.0125394,0.0223622 -0.0144803,0.0473228 -0.00825984,0.0729685 0.00519291,0.0214173 0.0162441,0.043126 0.0313346,0.0635866 0.13372,0.181311 0.426709,0.115736 0.621768,0.112394 0.153878,-0.0026378 0.301252,-0.00516535 0.353972,-0.00516535 0.0529213,0 0.085248,-0.00383465 0.107646,-0.015685 0.029748,-0.0157362 0.0393268,-0.0376614 0.0419409,-0.0710197 -0.130051,-0.0582559 -0.233177,-0.0245512 -0.382386,-0.0245512l-0.0104724 0z"/>
  <path class="fil7" d="M2.51046 2.14421c-0.033189,0.0203071 -0.0469606,0.0582283 -0.0307638,0.0847008 0.0161969,0.0264685 0.0562323,0.0314646 0.0894213,0.0111535 0.033189,-0.0203071 0.0469606,-0.0582283 0.0307638,-0.0847008 -0.0161969,-0.0264685 -0.0562323,-0.0314646 -0.0894213,-0.0111535z"/>
  <path class="fil8" d="M2.50848 2.14097c-0.0177126,0.0108386 -0.030248,0.0263819 -0.036189,0.042748 -0.00594488,0.0163622 -0.00529921,0.0335472 0.00334646,0.0476732 0.00864567,0.0141299 0.0236535,0.0225236 0.0409291,0.0246811 0.0172717,0.00215354 0.0368189,-0.00193307 0.0545315,-0.0127717 0.0177126,-0.0108386 0.0302441,-0.0263819 0.036189,-0.0427441 0.00594094,-0.0163622 0.00529921,-0.0335512 -0.00334646,-0.0476772 -0.00864567,-0.014126 -0.0236575,-0.0225236 -0.0409291,-0.0246772 -0.0172756,-0.00215748 -0.0368189,0.00192913 -0.0545315,0.0127677zm-0.0276535 0.043811c0.00518898,-0.0142874 0.0161417,-0.0278661 0.0316142,-0.0373346 0.0154764,-0.0094685 0.0325472,-0.0130433 0.0476339,-0.0111614 0.0150827,0.00188189 0.0281969,0.00922047 0.035748,0.021563 0.00755512,0.0123425 0.00811811,0.0273583 0.00292913,0.0416457 -0.00518898,0.0142874 -0.0161417,0.0278661 -0.0316142,0.0373346 -0.0154764,0.0094685 -0.0325512,0.0130394 -0.0476339,0.0111575 -0.0150866,-0.00188189 -0.0281969,-0.00921654 -0.035748,-0.0215591 -0.00755512,-0.0123425 -0.00812205,-0.0273583 -0.00292913,-0.0416457z"/>
  <path class="fil9" d="M2.52039 2.16043c-0.0219488,0.0134331 -0.031063,0.0385157 -0.0203465,0.0560236 0.0107126,0.0175079 0.0371929,0.020811 0.0591457,0.00737795 0.0219488,-0.0134291 0.0310591,-0.0385118 0.0203465,-0.0560197 -0.0107126,-0.0175079 -0.0371929,-0.020815 -0.0591457,-0.00738189z"/>
  <path class="fil10" d="M2.53737 2.16255c-0.00549213,0.0033622 -0.00722047,0.0105472 -0.00385433,0.0160433 0.00336614,0.0055 0.0105472,0.00723228 0.0160394,0.00387008 0.00549213,-0.0033622 0.00722047,-0.0105433 0.00385433,-0.0160433 -0.00336614,-0.00549606 -0.0105472,-0.00723228 -0.0160394,-0.00387008z"/>
  <path class="fil11" d="M2.84346 1.73144c0.0253268,0.0977992 0.0157008,0.201945 0.0290472,0.305319 0.00120079,0.0092874 0.00739764,0.0524764 -0.00590157,0.0386575 -0.0356102,-0.0370197 -0.126957,-0.0800315 -0.0999567,-0.125268l0.00398425 -0.00667323c0.036815,-0.0616772 0.0368898,-0.0738307 0.0541102,-0.136516 0.00898819,-0.0327126 0.00491339,-0.032063 0.00892126,-0.051748 0.0011811,-0.00577953 0.00368898,0.000755906 0.00645669,-0.0206575 0.000153543,-0.00116535 0.00342913,-0.00275984 0.00333858,-0.00311417z"/>
 </g>
</svg>
